
    <svg width="207" height="50" viewBox="0 0 207 40" fill="none" xmlns="http://www.w3.org/2000/svg">
      <g clipPath="url(#clip0_2272_6015)">
        <path
          d="M61.1759 31.4369C59.0038 31.4369 57.1477 30.6441 55.6074 29.0584C54.0672 27.4726 53.2773 25.5698 53.2773 23.3497V10.9414C53.2773 10.545 53.4353 10.1882 53.7118 9.91068C54.0277 9.63318 54.3831 9.47461 54.7781 9.47461C55.2125 9.47461 55.5679 9.63318 55.8839 9.95033C56.1998 10.2675 56.3578 10.6243 56.3578 11.0207V17.1257C57.9375 15.8968 59.5172 15.3022 61.1759 15.3022C63.348 15.3022 65.2042 16.095 66.7444 17.6411C68.2847 19.2268 69.0745 21.0901 69.0745 23.3101C69.0745 25.5301 68.2847 27.433 66.7444 29.0187C65.2042 30.6441 63.348 31.4369 61.1759 31.4369ZM61.2154 18.3943C59.8727 18.3943 58.7274 18.87 57.7795 19.8611C56.8317 20.8522 56.3578 22.0019 56.3578 23.3894C56.3578 24.7769 56.8317 25.9662 57.7795 26.9176C58.7274 27.8691 59.8727 28.3844 61.2154 28.3844C62.5582 28.3844 63.743 27.9087 64.6513 26.9176C65.5597 25.9265 66.0731 24.7769 66.0731 23.3894C66.0731 22.0019 65.5991 20.8522 64.6513 19.8611C63.7035 18.87 62.5582 18.3943 61.2154 18.3943Z"
          fill="white"
        />
        <path
          d="M78.0002 31.477C75.828 31.477 73.9719 30.6841 72.4316 29.1381C70.8914 27.592 70.1016 25.7287 70.1016 23.5484C70.1016 21.368 70.8914 19.4651 72.4316 17.919C73.9719 16.3729 75.828 15.5801 78.0002 15.5801C80.1723 15.5801 82.0679 16.3729 83.6082 17.919C85.1484 19.4651 85.9382 21.3283 85.9382 23.5484C85.9382 25.7287 85.1484 27.592 83.6082 29.1381C82.0679 30.6841 80.2118 31.477 78.0002 31.477ZM78.0791 18.6722C76.7364 18.6722 75.5911 19.148 74.6433 20.0994C73.6954 21.0508 73.2215 22.2005 73.2215 23.5484C73.2215 24.8962 73.6954 26.0459 74.6433 26.9973C75.5911 27.9488 76.7364 28.4245 78.0791 28.4245C79.4219 28.4245 80.6067 27.9488 81.515 26.9973C82.4234 26.0459 82.9368 24.8962 82.9368 23.5484C82.9368 22.2005 82.4629 21.0508 81.515 20.0994C80.5672 19.148 79.4219 18.6722 78.0791 18.6722Z"
          fill="white"
        />
        <path
          d="M96.2072 31.477C94.0351 31.477 92.1789 30.6841 90.6387 29.1381C89.0985 27.592 88.3086 25.7287 88.3086 23.5484C88.3086 21.368 89.0985 19.4651 90.6387 17.919C92.1789 16.3729 94.0351 15.5801 96.2072 15.5801C98.3793 15.5801 100.275 16.3729 101.815 17.919C103.355 19.4651 104.145 21.3283 104.145 23.5484C104.145 25.7287 103.355 27.592 101.815 29.1381C100.275 30.6841 98.4188 31.477 96.2072 31.477ZM96.2862 18.6722C94.9434 18.6722 93.7981 19.148 92.8503 20.0994C91.9025 21.0508 91.4285 22.2005 91.4285 23.5484C91.4285 24.8962 91.9025 26.0459 92.8503 26.9973C93.7981 27.9488 94.9434 28.4245 96.2862 28.4245C97.6289 28.4245 98.8137 27.9488 99.7221 26.9973C100.67 26.0459 101.144 24.8962 101.144 23.5484C101.144 22.2005 100.67 21.0508 99.7221 20.0994C98.7742 19.148 97.6289 18.6722 96.2862 18.6722Z"
          fill="white"
        />
        <path
          d="M115.399 31.5164C114.53 31.556 113.898 31.556 113.464 31.556C111.331 31.556 109.514 30.8028 107.974 29.2963C106.434 27.7899 105.684 25.9267 105.684 23.7067V13.3994C105.684 13.003 105.842 12.6462 106.118 12.3687C106.434 12.0912 106.75 11.9326 107.145 11.9326C107.935 11.9326 108.448 12.4083 108.646 13.4391C108.725 13.8355 108.725 14.5887 108.685 15.6591H115.32C115.754 15.6591 116.11 15.8177 116.347 16.1348C116.584 16.4519 116.702 16.8087 116.702 17.2052C116.702 17.6412 116.544 17.998 116.228 18.3152C115.912 18.6323 115.557 18.7909 115.162 18.7909H108.606V23.5877C108.606 24.9356 109.08 26.1249 110.028 27.0763C110.976 28.0278 112.121 28.5035 113.424 28.4638C113.582 28.4638 113.859 28.4638 114.333 28.4638C114.727 28.4638 115.043 28.4638 115.28 28.4638C115.675 28.4638 116.07 28.6224 116.347 28.9396C116.663 29.2567 116.781 29.6135 116.781 30.0099C116.781 30.446 116.623 30.8028 116.347 31.0803C116.149 31.3578 115.794 31.5164 115.399 31.5164Z"
          fill="white"
        />
        <path
          d="M127.722 18.5922C127.524 18.5922 127.208 18.5922 126.774 18.5922C126.379 18.5922 126.063 18.5922 125.826 18.5922C124.523 18.5922 123.378 19.0679 122.469 20.0193C121.561 20.9708 121.087 22.1204 121.087 23.4683C121.087 24.7765 121.561 25.8865 122.469 26.838C123.417 27.7894 124.523 28.2651 125.826 28.2651C126.024 28.2651 126.3 28.2651 126.774 28.2651C127.169 28.2651 127.485 28.2651 127.722 28.2651C128.117 28.2651 128.472 28.4237 128.788 28.7012C129.104 29.0183 129.262 29.3751 129.262 29.7716C129.262 30.2076 129.104 30.5644 128.828 30.8419C128.551 31.1194 128.196 31.278 127.801 31.278C127.248 31.3176 126.616 31.3573 125.866 31.3573C123.733 31.3573 121.916 30.5644 120.376 29.0183C118.875 27.4722 118.125 25.609 118.125 23.389C118.125 21.169 118.875 19.3454 120.376 17.7993C121.877 16.2532 123.694 15.5 125.866 15.5H127.722C128.117 15.5 128.512 15.6586 128.788 15.9361C129.104 16.2532 129.223 16.61 129.223 17.0064C129.223 17.4029 129.065 17.7993 128.788 18.0768C128.472 18.4336 128.117 18.5922 127.722 18.5922Z"
          fill="white"
        />
        <path
          d="M144.98 31.477C144.15 31.477 143.637 30.8824 143.518 29.6931C141.978 30.8824 140.359 31.477 138.621 31.477C136.449 31.477 134.593 30.6841 133.053 29.1381C131.513 27.592 130.723 25.7287 130.723 23.5484C130.723 21.368 131.513 19.4651 133.053 17.919C134.593 16.3729 136.449 15.5801 138.621 15.5801C140.793 15.5801 142.689 16.3729 144.229 17.919C145.769 19.4651 146.559 21.3283 146.559 23.5484V30.0102C146.559 30.4463 146.401 30.8031 146.085 31.0806C145.769 31.3184 145.414 31.477 144.98 31.477ZM138.7 18.6722C137.357 18.6722 136.212 19.148 135.264 20.0994C134.317 21.0508 133.843 22.2005 133.843 23.5484C133.843 24.8962 134.317 26.0459 135.264 26.9973C136.212 27.9488 137.357 28.4245 138.7 28.4245C140.043 28.4245 141.228 27.9488 142.136 26.9973C143.084 26.0459 143.558 24.8962 143.558 23.5484C143.558 22.2005 143.084 21.0508 142.136 20.0994C141.188 19.148 140.043 18.6722 138.7 18.6722Z"
          fill="white"
        />
        <path
          d="M175.547 31.6348C175.152 31.6348 174.796 31.4763 174.48 31.1988C174.164 30.9213 174.006 30.5645 174.006 30.168V24.0233C174.006 22.6755 173.532 21.4862 172.545 20.5347C171.558 19.5833 170.373 19.1076 169.03 19.1076C168.043 19.1076 167.095 19.3851 166.226 19.9401C165.357 20.4951 164.765 21.2483 164.41 22.1998C164.212 22.6755 164.133 23.0323 164.133 23.2701C164.133 24.1026 164.133 25.2126 164.133 26.6002C164.133 28.2255 164.133 29.3355 164.133 29.9302C164.133 30.3663 163.975 30.7627 163.659 31.1195C163.343 31.4763 162.948 31.6745 162.514 31.6745C162.079 31.6745 161.724 31.5159 161.408 31.2384C161.092 30.9609 160.934 30.6041 160.934 30.168V23.9837C160.934 23.9044 160.934 23.7855 160.934 23.6269C160.934 23.4287 160.934 23.3098 160.934 23.2305C160.934 22.9926 160.855 22.6358 160.697 22.1998C160.342 21.2483 159.71 20.4555 158.881 19.8608C158.051 19.2662 157.103 18.9887 156.037 18.9887C154.655 18.9887 153.509 19.4644 152.562 20.4158C151.614 21.3672 151.14 22.5169 151.14 23.8648C151.14 23.8251 151.14 25.8866 151.14 29.9302C151.14 30.3266 150.982 30.6834 150.666 31.0005C150.35 31.3177 149.955 31.4763 149.521 31.4763C149.126 31.4763 148.731 31.3177 148.454 31.0402C148.138 30.7627 147.98 30.4059 147.98 30.0095V23.7855C147.98 21.6051 148.77 19.7419 150.35 18.1958C151.93 16.6497 153.825 15.8965 156.037 15.8965C158.723 15.8965 160.934 17.0065 162.632 19.1869C164.331 17.1254 166.463 16.0947 169.03 16.0947C171.281 16.0947 173.216 16.8876 174.796 18.4337C176.376 19.9797 177.166 21.843 177.166 24.0233C177.166 23.9837 177.166 26.0451 177.166 30.1284C177.166 30.5248 177.047 30.9213 176.731 31.1988C176.376 31.4763 175.981 31.6348 175.547 31.6348Z"
          fill="white"
        />
        <path
          d="M186.844 31.7143C185.185 31.7143 183.605 31.1196 182.026 29.8907V35.9958C182.026 36.3922 181.868 36.7886 181.552 37.1058C181.236 37.4229 180.88 37.5815 180.446 37.5815C180.012 37.5815 179.656 37.4229 179.38 37.1454C179.103 36.8679 178.945 36.5111 178.945 36.075V23.6667C178.945 21.4467 179.735 19.5438 181.275 17.9581C182.816 16.3724 184.672 15.6191 186.844 15.6191C189.016 15.6191 190.912 16.412 192.452 17.9581C193.992 19.5042 194.782 21.4467 194.782 23.6667C194.782 25.8867 193.992 27.7896 192.452 29.3357C190.872 30.9214 189.016 31.7143 186.844 31.7143ZM186.883 18.6717C185.541 18.6717 184.395 19.1474 183.448 20.1385C182.5 21.1295 182.026 22.2792 182.026 23.6667C182.026 25.0542 182.5 26.2039 183.448 27.195C184.395 28.186 185.541 28.6618 186.883 28.6618C188.226 28.6618 189.411 28.186 190.319 27.195C191.267 26.2039 191.741 25.0542 191.741 23.6667C191.741 22.2792 191.267 21.1295 190.319 20.1385C189.371 19.1474 188.226 18.6717 186.883 18.6717Z"
          fill="white"
        />
        <path
          d="M205.602 15.7383C206.313 16.0158 206.668 16.4519 206.668 17.1654C206.668 17.5222 206.55 17.879 206.273 18.1565C205.997 18.434 205.681 18.5529 205.326 18.5529C205.128 18.5529 204.812 18.5529 204.417 18.5529C204.022 18.5529 203.706 18.5529 203.509 18.5529C202.166 18.5529 200.981 19.0287 200.033 20.0197C199.086 21.0108 198.612 22.1605 198.612 23.548V29.8909C198.612 30.2873 198.493 30.6045 198.177 30.8423C197.901 31.0802 197.585 31.1991 197.229 31.1991C196.874 31.1991 196.558 31.0802 196.282 30.8423C196.005 30.6045 195.887 30.2873 195.887 29.8909V23.5083C195.887 21.4073 196.598 19.6233 197.98 18.0772C199.362 16.5311 201.1 15.7779 203.153 15.7383H203.469H205.602Z"
          fill="white"
        />
        <path
          d="M33.7665 8.84015L19.2331 0.435785C18.2457 -0.11922 17.061 -0.11922 16.0736 0.435785L1.57972 8.84015C0.592394 9.39515 0 10.4655 0 11.5755V28.3842C0 29.5339 0.592394 30.5646 1.57972 31.1196L16.0736 39.524C17.061 40.079 18.2457 40.079 19.2331 39.524L33.727 31.1196C34.7143 30.5646 35.3067 29.4943 35.3067 28.3842V11.5755C35.3462 10.4655 34.7143 9.39515 33.7665 8.84015Z"
          fill="white"
        />
        <path
          d="M9.99262 25.1334L17.6543 29.5734C17.6937 29.5734 17.7332 29.5734 17.7332 29.5734L25.3949 25.1334C25.4344 25.1334 25.4344 25.0937 25.4344 25.0541V16.174C25.4344 16.1344 25.4344 16.1344 25.3949 16.0947L17.7332 11.6943H17.6937H17.6543L9.99262 16.0947C9.95312 16.0947 9.95312 16.1344 9.95312 16.174V19.9798V25.0541C9.95312 25.0937 9.95312 25.0937 9.99262 25.1334Z"
          fill="#F29D20"
        />
        <path
          d="M33.7665 8.84015L19.2331 0.435785C18.2457 -0.11922 17.061 -0.11922 16.0736 0.435785L9.91273 4.00367V10.3862L15.1258 7.37335C16.7055 6.46155 18.6407 6.46155 20.2204 7.37335L27.8425 11.8134C29.4223 12.7252 30.3701 14.4298 30.3701 16.2138V25.0939C30.3701 26.9174 29.3828 28.5825 27.8425 29.4943L20.2204 33.8947C19.4305 34.3307 18.5617 34.5686 17.6928 34.5686C16.824 34.5686 15.9552 34.3307 15.1653 33.8947L7.50366 29.4546C5.92394 28.5428 4.97611 26.8382 4.97611 25.0542V19.9799V16.1741V6.85799L1.57972 8.84015C0.592394 9.39515 0 10.4655 0 11.5755V28.3842C0 29.5339 0.592394 30.5646 1.57972 31.1196L16.0736 39.524C17.061 40.079 18.2457 40.079 19.2331 39.524L33.727 31.1196C34.7143 30.5646 35.3067 29.4943 35.3067 28.3842V11.5755C35.3462 10.4655 34.7143 9.39515 33.7665 8.84015Z"
          fill="#F29D20"
        />
      </g>
      <defs>
        <clipPath id="clip0_2272_6015">
          <rect width="206.667" height="40" fill="white" />
        </clipPath>
      </defs>
    </svg>
  
