<svg width="36" height="41" viewBox="0 0 36 41" fill="none" xmlns="http://www.w3.org/2000/svg">
<g id="Group">
<path id="Vector" d="M34.1477 9.34039L19.4502 0.936029C18.4517 0.381024 17.2536 0.381024 16.2551 0.936029L1.59755 9.34039C0.599083 9.89539 0 10.9658 0 12.0758V28.8845C0 30.0341 0.599083 31.0649 1.59755 31.6199L16.2551 40.0242C17.2536 40.5792 18.4517 40.5792 19.4502 40.0242L34.1078 31.6199C35.1063 31.0649 35.7053 29.9945 35.7053 28.8845V12.0758C35.7453 10.9658 35.1063 9.89539 34.1477 9.34039Z" fill="white"/>
<g id="Group_2">
<path id="Vector_2" d="M10.1046 25.6337L17.8528 30.0738C17.8927 30.0738 17.9327 30.0738 17.9327 30.0738L25.6808 25.6337C25.7207 25.6337 25.7207 25.5941 25.7207 25.5545V16.6744C25.7207 16.6347 25.7207 16.6347 25.6808 16.5951L17.9327 12.1947H17.8927H17.8528L10.1046 16.5951C10.0647 16.5951 10.0647 16.6347 10.0647 16.6744V20.4801V25.5545C10.0647 25.5941 10.0647 25.5941 10.1046 25.6337Z" fill="#F29D20"/>
<path id="Vector_3" d="M34.1477 9.34039L19.4502 0.936029C18.4517 0.381024 17.2536 0.381024 16.2551 0.936029L10.0247 4.50392V10.8865L15.2966 7.87359C16.8941 6.9618 18.8511 6.9618 20.4487 7.87359L28.1569 12.3136C29.7544 13.2254 30.713 14.9301 30.713 16.714V25.5941C30.713 27.4177 29.7145 29.0827 28.1569 29.9945L20.4487 34.3949C19.6499 34.831 18.7713 35.0688 17.8926 35.0688C17.014 35.0688 16.1353 34.831 15.3365 34.3949L7.58838 29.9549C5.99083 29.0431 5.0323 27.3384 5.0323 25.5545V20.4801V16.6744V7.35823L1.59755 9.34039C0.599083 9.89539 0 10.9658 0 12.0758V28.8845C0 30.0341 0.599083 31.0649 1.59755 31.6199L16.2551 40.0242C17.2536 40.5792 18.4517 40.5792 19.4502 40.0242L34.1078 31.6199C35.1063 31.0649 35.7053 29.9945 35.7053 28.8845V12.0758C35.7453 10.9658 35.1063 9.89539 34.1477 9.34039Z" fill="#F29D20"/>
</g>
</g>
</svg>
